<svg width="623" height="623" viewBox="0 0 623 623" fill="none" xmlns="http://www.w3.org/2000/svg">
<path d="M260.618 400.099C254.398 400.099 248.722 398.621 243.59 395.667C238.614 392.556 234.571 388.513 231.46 383.537C228.506 378.405 227.028 372.729 227.028 366.509V232.149H260.618V364.876C260.618 365.342 260.696 365.731 260.852 366.042C261.163 366.198 261.551 366.275 262.018 366.275H359.522C359.989 366.275 360.3 366.198 360.455 366.042C360.766 365.731 360.922 365.342 360.922 364.876V232.149H394.978V366.509C394.978 372.729 393.423 378.405 390.313 383.537C387.203 388.513 383.082 392.556 377.95 395.667C372.974 398.621 367.453 400.099 361.388 400.099H260.618Z" fill="url(#paint0_linear_7_1631)"/>
<defs>
<linearGradient id="paint0_linear_7_1631" x1="214.432" y1="310.099" x2="408.432" y2="310.099" gradientUnits="userSpaceOnUse">
<stop stop-color="#EA6B4A"/>
<stop offset="0.5" stop-color="#EA6B4A"/>
<stop offset="0.5" stop-color="#0891B2"/>
<stop offset="1" stop-color="#0891B2"/>
</linearGradient>
</defs>
</svg>
